{
  "title": "Maleficent (2014) DVDRip XviD-MAX",
  "uid": 10788864,
  "size": 1330569270,
  "categoryP": "video",
  "categoryS": "movies",
  "magnet": "?xt=urn:btih:d5976a4fc7c3a5f745ca9e77b718f09b520c3166&amp;dn=Maleficent+%282014%29+DVDRip+XviD-MAX&amp;tr=udp%3A%2F%2Ftracker.openbittorrent.com%3A80&amp;tr=udp%3A%2F%2Fopen.demonii.com%3A1337&amp;tr=udp%3A%2F%2Ftracker.coppersurfer.tk%3A6969&amp;tr=udp%3A%2F%2Fexodus.desync.com%3A6969",
  "seeders": 811,
  "leechers": 116,
  "uploader": "extremezone",
  "files": 4,
  "time": 1408237805,
  "description": " &lt;a href=&quot;http://i.imgur.com/JA1cyiA.jpg&quot; rel=&quot;nofollow&quot; target=&quot;_NEW&quot;&gt;http://i.imgur.com/JA1cyiA.jpg&lt;/a&gt;\n\nScreens:\n &lt;a href=&quot;\nhttp://i.imgur.com/oCrxewE.jpg&quot; rel=&quot;nofollow&quot; target=&quot;_NEW&quot;&gt;\nhttp://i.imgur.com/oCrxewE.jpg&lt;/a&gt; &lt;a href=&quot;\nhttp://i.imgur.com/f6vLanD.jpg&quot; rel=&quot;nofollow&quot; target=&quot;_NEW&quot;&gt;\nhttp://i.imgur.com/f6vLanD.jpg&lt;/a&gt; &lt;a href=&quot;\nhttp://i.imgur.com/RAimxgv.jpg&quot; rel=&quot;nofollow&quot; target=&quot;_NEW&quot;&gt;\nhttp://i.imgur.com/RAimxgv.jpg&lt;/a&gt; &lt;a href=&quot;\nhttp://i.imgur.com/HMu54VS.jpg&quot; rel=&quot;nofollow&quot; target=&quot;_NEW&quot;&gt;\nhttp://i.imgur.com/HMu54VS.jpg&lt;/a&gt;\n\nScreenCaps:\n &lt;a href=&quot;\nhttp://i.imgur.com/5b8ugWR.jpg&quot; rel=&quot;nofollow&quot; target=&quot;_NEW&quot;&gt;\nhttp://i.imgur.com/5b8ugWR.jpg&lt;/a&gt;\n\nMaleficent (2014) DVDRip XviD-MAX\nFormat                                   : AVI\nFormat/Info                              : Audio Video Interleave\nFormat profile                           : OpenDML\nFormat settings                          : rec\nFile size                                : 1.23 GiB\nDuration                                 : 1h 37mn\nOverall bit rate                         : 1 808 Kbps\nWriting application                      : VirtualDubMod 1.5.10.2 (build 2542/release)\nWriting library                          : VirtualDubMod build 2542/release\nOriginal source form                     : MAX TORRENTZ\nCopyright                                : SIGISMUNT\n\nVideo\nID                                       : 0\nFormat                                   : MPEG-4 Visual\nFormat profile                           : Advanced Simple@L5\nFormat settings, BVOP                    : 2\nFormat settings, QPel                    : No\nFormat settings, GMC                     : No warppoints\nFormat settings, Matrix                  : Default (MPEG)\nCodec ID                                 : XVID\nCodec ID/Hint                            : XviD\nDuration                                 : 1h 37mn\nBit rate                                 : 1 607 Kbps\nWidth                                    : 720 pixels\nHeight                                   : 304 pixels\nDisplay aspect ratio                     : 2.35:1\nFrame rate                               : 23.976 fps\nColor space                              : YUV\nChroma subsampling                       : 4:2:0\nBit depth                                : 8 bits\nScan type                                : Progressive\nCompression mode                         : Lossy\nBits/(Pixel*Frame)                       : 0.306\nStream size                              : 1.09 GiB (89%)\nWriting library                          : XviD 1.2.1 (UTC 2008-12-04)\n\nAudio\nID                                       : 1\nFormat                                   : MPEG Audio\nFormat version                           : Version 1\nFormat profile                           : Layer 3\nMode                                     : Joint stereo\nMode extension                           : MS Stereo\nCodec ID                                 : 55\nCodec ID/Hint                            : MP3\nDuration                                 : 1h 37mn\nBit rate mode                            : Constant\nBit rate                                 : 192 Kbps\nChannel(s)                               : 2 channels\nSampling rate                            : 48.0 KHz\nCompression mode                         : Lossy\nStream size                              : 134 MiB (11%)\nAlignment                                : Aligned on interleaves\nInterleave, duration                     : 24 ms (0.58 video frame)\nInterleave, preload duration             : 192 msvideo frames)\nInterleave, preload duration             : 192 ms\n\nSource: DVD (perfect a/v/sync quality,sample included)\nThis torrent is not seedbox supported,please seed it to the MAX\n\nUploader Note: If you think image it's a little dark then VLC-&gt;Ctrl+E-&gt;Video Effects-&gt;\n-&gt;Image adjust-&gt;Brightness-&gt;Close, simple as 1,2,3 so no complaints about this please,thanks\n\nNote: If you have something to offer as early releases,seedboxes,\ncontact us on &lt;a href=&quot; http://torentz.3xforum.ro&quot; rel=&quot;nofollow&quot; target=&quot;_NEW&quot;&gt; http://torentz.3xforum.ro&lt;/a&gt; or \n\nHow To Get Your MAXSPEED (uTorrent)\n\nTorrent Client - Preferences - Bandwidth - Number of connections - Set aprox. 500 for each\nTorrent Client - Preferences - BiTorrent - Protocol Encryption - Forced\nBandwidth Allocation - High (Set download/upload limit - Unlimited)\nStop Other Active Torrents - Start downloading and wait for connections.\nEnjoy and Seed for at least 1:1 ratio. Don't forget to say thanks/leave reviews.\nIf screens/Caps image host is dead googlesearch &quot;release name&quot;+&quot;screens&quot; or &quot;sample&quot;.\nGreets to all actual/future p2p/scene QUALITY groups and affiliate websites.\nDon't trust IMDb robot or bad ratings,always watch some trailers first.\nIgnore stupid comments/fake/mislabeled/no-DVDrips/CAM/TS/RAR uploads.\nPlease spread this release/torrent to your friends/forums/etc.\nIf you need translation subs visit some subtitles sites.\nReport if you see online streaming or other spam links.\nRecommended movie player VLC PLAYER.",
  "parsed": {
    "xt": "urn:btih:d5976a4fc7c3a5f745ca9e77b718f09b520c3166",
    "dn": "Maleficent (2014) DVDRip XviD-MAX",
    "tr": [
      "udp://exodus.desync.com:6969",
      "udp://open.demonii.com:1337",
      "udp://tracker.coppersurfer.tk:6969",
      "udp://tracker.openbittorrent.com:80"
    ],
    "infoHash": "d5976a4fc7c3a5f745ca9e77b718f09b520c3166",
    "infoHashBuffer": {
      "type": "Buffer",
      "data": [
        213,
        151,
        106,
        79,
        199,
        195,
        165,
        247,
        69,
        202,
        158,
        119,
        183,
        24,
        240,
        155,
        82,
        12,
        49,
        102
      ]
    },
    "name": "Maleficent (2014) DVDRip XviD-MAX",
    "announce": [
      "udp://exodus.desync.com:6969",
      "udp://open.demonii.com:1337",
      "udp://tracker.coppersurfer.tk:6969",
      "udp://tracker.openbittorrent.com:80"
    ],
    "urlList": []
  },
  "previous": 163,
  "peers": 194,
  "last_updated": "2016-12-27T14:16:32.155Z"
}